<?xml version="1.0" standalone="no"?>
<!DOCTYPE svg PUBLIC "-//W3C//DTD SVG 20010904//EN"
 "http://www.w3.org/TR/2001/REC-SVG-20010904/DTD/svg10.dtd">
<svg version="1.0" xmlns="http://www.w3.org/2000/svg"
 width="640.000000pt" height="640.000000pt" viewBox="0 0 640.000000 640.000000"
 preserveAspectRatio="xMidYMid meet">
<metadata>
Created by potrace 1.16, written by Peter Selinger 2001-2019
</metadata>
<g transform="translate(0.000000,640.000000) scale(0.100000,-0.100000)"
fill="#000000" stroke="none">
<path d="M3394 6030 c-55 -6 -94 -28 -73 -41 7 -4 -8 -7 -33 -7 -24 0 -51 4
-59 9 -10 6 0 9 29 9 26 0 41 4 37 10 -3 6 -1 10 6 10 7 0 9 3 6 6 -4 4 -13 2
-20 -4 -16 -14 -129 -14 -121 0 4 6 -25 7 -78 4 -85 -5 -114 -12 -180 -40 -43
-18 -60 -21 -38 -5 12 8 9 9 -12 5 -14 -3 -34 -9 -44 -13 -12 -4 -15 -3 -10 5
4 8 0 12 -11 12 -15 1 -14 3 5 14 23 12 22 13 -17 14 -23 1 -41 -3 -41 -9 0
-6 9 -8 23 -3 12 3 19 3 15 -1 -4 -5 -2 -15 5 -23 10 -13 8 -14 -13 -8 -18 5
-21 5 -10 -3 18 -12 13 -18 -20 -24 -14 -2 -19 -2 -12 0 6 3 12 9 12 15 0 6
-8 7 -17 3 -15 -5 -16 -4 -5 6 22 23 15 40 -14 29 -14 -6 -49 -10 -78 -10 -28
0 -58 -6 -65 -12 -11 -11 -12 -10 -6 1 18 31 -149 -23 -245 -79 -25 -15 -50
-25 -57 -23 -14 5 -93 -43 -93 -57 0 -5 -7 -7 -15 -4 -9 4 -15 0 -15 -10 0 -9
-8 -16 -17 -16 -21 0 -116 -89 -138 -128 -17 -32 -51 -72 -60 -72 -3 0 -3 6 0
13 4 6 -3 1 -15 -13 -25 -28 -70 -113 -70 -131 0 -7 -13 -40 -30 -75 -16 -35
-33 -81 -36 -103 -4 -22 -13 -42 -21 -45 -10 -4 -12 -15 -8 -39 5 -25 2 -38
-10 -51 -12 -12 -17 -33 -16 -71 0 -30 -4 -57 -9 -60 -14 -9 -12 -47 4 -68 10
-13 12 -27 5 -50 -7 -24 -5 -35 6 -46 13 -14 15 -13 15 2 0 10 4 16 9 13 4 -3
5 -23 2 -43 -8 -44 1 -95 13 -75 4 6 4 17 0 24 -4 6 -3 8 3 5 5 -4 10 -20 11
-36 1 -44 17 -66 49 -69 30 -2 60 29 47 50 -5 7 -2 9 9 5 8 -3 21 1 27 9 7 8
19 14 27 14 8 0 27 9 43 20 15 11 30 17 34 13 3 -3 6 -1 6 5 0 6 7 9 15 6 8
-4 17 1 21 10 3 9 10 16 16 16 5 0 6 -6 2 -12 -4 -7 2 -5 13 5 11 9 24 17 30
17 14 0 96 42 104 54 4 5 11 6 16 3 6 -4 27 2 47 13 39 20 94 36 110 31 5 -1
18 7 30 17 11 11 37 23 56 27 19 4 45 13 58 21 12 8 22 11 22 7 0 -5 4 -2 9 5
9 15 132 35 144 23 11 -11 58 -1 51 10 -3 5 4 9 15 9 12 0 21 -6 21 -12 0 -9
3 -9 8 -2 13 19 67 34 109 29 23 -2 45 0 48 5 7 12 67 1 80 -14 6 -6 22 -17
37 -25 15 -8 25 -18 22 -23 -3 -4 1 -11 10 -14 24 -9 28 -33 4 -26 -18 4 -19
3 -9 -17 7 -12 9 -25 6 -30 -3 -5 4 -12 15 -16 11 -4 18 -11 14 -16 -3 -6 -1
-16 5 -22 14 -17 8 -67 -10 -78 -10 -6 -6 -9 14 -9 15 0 27 -4 27 -10 0 -5
-11 -10 -25 -10 -14 0 -25 -5 -25 -11 0 -7 11 -9 27 -6 24 4 25 4 10 -7 -9 -7
-14 -16 -10 -19 3 -4 1 -12 -5 -20 -6 -7 -9 -23 -5 -35 3 -15 1 -22 -8 -23 -8
-1 -3 -5 11 -9 l25 -8 -25 -1 -25 -2 25 -14 c22 -13 23 -14 5 -15 l-20 -1 20
-9 c19 -8 19 -9 -2 -9 -18 -1 -23 -7 -23 -30 0 -17 6 -31 16 -35 25 -10 -5
-33 -38 -28 -21 3 -28 0 -28 -12 0 -9 7 -19 15 -22 20 -8 19 -32 -1 -30 -12 1
-17 -9 -18 -37 -2 -21 1 -40 5 -43 5 -2 6 -11 2 -19 -3 -10 1 -15 12 -15 10 0
15 5 12 13 -6 15 9 45 17 36 3 -3 11 -29 19 -58 14 -56 28 -71 65 -71 15 0 26
-7 29 -20 3 -13 14 -20 29 -20 30 0 32 -20 2 -21 -18 -1 -19 -2 -5 -6 10 -3
24 0 31 6 10 8 16 5 24 -14 6 -14 18 -25 26 -25 7 0 19 -7 26 -15 7 -9 21 -13
31 -10 9 3 20 1 24 -5 4 -6 -5 -11 -22 -11 -27 -2 -27 -2 -3 -6 32 -6 50 -21
61 -50 5 -13 17 -26 26 -30 21 -8 46 -39 53 -68 3 -11 12 -20 20 -20 7 0 15
-6 18 -12 2 -7 -1 -13 -7 -13 -6 0 -11 -4 -11 -10 0 -5 7 -10 15 -10 10 0 15
-10 15 -28 0 -16 9 -37 20 -47 15 -14 17 -22 9 -37 -6 -11 -8 -22 -5 -26 3 -3
6 0 6 6 0 7 5 12 11 12 6 0 8 -9 4 -20 -7 -22 10 -28 19 -7 3 6 3 0 0 -14 -4
-18 -1 -28 10 -32 9 -4 13 -12 11 -20 -3 -7 6 -39 20 -71 20 -45 22 -57 10
-53 -20 8 -19 -3 3 -19 16 -13 16 -13 -3 -14 -16 0 -17 -2 -6 -9 12 -8 12 -14
2 -39 -13 -32 -7 -71 13 -84 8 -6 7 -8 -1 -8 -8 0 -13 -13 -13 -29 0 -17 -4
-33 -10 -36 -5 -3 -10 -11 -10 -16 0 -6 5 -7 11 -3 8 4 9 -3 4 -24 -8 -37 11
-53 24 -20 8 19 10 15 9 -22 0 -28 -2 -37 -6 -25 -9 26 -42 33 -35 7 3 -14 -5
-23 -31 -36 -35 -16 -61 -41 -32 -30 9 3 23 -2 33 -11 16 -17 16 -17 -4 -11
-13 4 -25 1 -33 -9 -11 -13 -9 -15 11 -16 l24 0 -22 -9 c-13 -5 -23 -16 -23
-25 0 -16 -26 -21 -32 -7 -1 5 -19 11 -38 15 -19 3 -29 3 -22 0 6 -2 12 -15
12 -28 0 -16 -7 -25 -25 -29 -19 -5 -25 -13 -25 -35 0 -16 6 -31 15 -35 22 -8
18 -36 -5 -36 -11 0 -20 7 -20 15 0 8 -4 15 -10 15 -9 0 -15 -79 -11 -136 2
-16 -7 -25 -31 -34 -30 -11 -31 -13 -13 -20 11 -5 14 -9 7 -9 -22 -1 -8 -25
19 -32 24 -7 24 -7 -3 -8 -30 -1 -47 -19 -28 -31 10 -6 9 -9 -1 -13 -11 -4
-10 -9 5 -21 20 -16 20 -16 0 -32 -18 -15 -17 -15 14 -10 25 4 30 3 21 -7 -14
-14 -59 -19 -59 -6 0 6 -9 5 -20 -1 -20 -11 -29 -60 -10 -60 6 0 10 6 10 13 0
7 9 13 20 14 15 1 19 -4 18 -22 -1 -14 -7 -21 -15 -18 -9 4 -13 -7 -14 -38 -1
-35 -2 -39 -8 -19 -5 17 -9 21 -15 12 -4 -7 -16 -10 -26 -7 -16 5 -19 1 -18
-27 1 -17 -4 -34 -10 -36 -7 -2 -12 -12 -12 -22 0 -10 -8 -21 -17 -23 -17 -4
-17 -5 0 -6 24 -1 11 -21 -14 -21 -12 0 -19 -7 -19 -20 0 -11 -4 -20 -10 -20
-5 0 -10 5 -10 12 0 16 -29 -24 -30 -40 0 -8 6 -12 13 -9 6 2 11 9 10 14 -1 5
5 10 13 10 22 0 16 -24 -8 -30 -26 -7 -38 -1 -38 19 0 23 -38 -2 -43 -28 l-4
-23 -2 23 c0 14 -6 22 -13 19 -7 -2 -12 -10 -10 -18 10 -41 13 -73 5 -63 -4 6
-18 14 -30 18 -13 4 -24 15 -24 24 -1 9 -6 -5 -11 -33 -5 -27 -13 -54 -17 -60
-4 -5 3 -20 16 -32 13 -12 23 -19 24 -15 0 4 5 -6 10 -22 13 -46 -7 -47 -24
-1 -3 6 -7 7 -11 3 -4 -3 0 -21 10 -39 l17 -33 -32 31 c-17 17 -31 36 -31 41
0 5 -6 15 -14 21 -11 10 -17 8 -26 -6 -8 -13 -13 -14 -16 -5 -8 17 -24 15 -24
-3 0 -7 7 -18 17 -23 9 -5 17 -19 18 -32 1 -12 6 -25 11 -28 15 -10 25 -42 14
-42 -11 0 -1 -32 14 -42 6 -4 7 -10 3 -15 -5 -4 -12 -1 -17 7 -15 24 -21 5
-10 -26 6 -16 8 -25 4 -21 -4 4 -12 3 -19 -3 -7 -6 -21 -4 -39 5 -26 14 -28
14 -22 -3 7 -16 6 -16 -9 -1 -10 9 -26 14 -41 11 -28 -5 -31 -17 -6 -31 14 -8
15 -12 5 -22 -11 -11 -13 -10 -13 4 0 9 -7 17 -15 17 -18 0 -21 -56 -4 -80 8
-12 9 -10 4 9 -5 16 -4 21 4 17 6 -4 11 -20 11 -36 0 -16 9 -46 20 -66 12 -20
19 -41 16 -48 -2 -6 -5 -3 -5 7 -1 24 -20 21 -30 -5 -4 -13 -10 -17 -14 -11
-4 6 -16 9 -27 6 -15 -4 -18 -11 -14 -28 3 -13 1 -32 -6 -42 -10 -16 -11 -16
-7 4 3 13 1 26 -5 29 -13 8 -99 -86 -91 -99 3 -6 1 -7 -5 -3 -7 4 -12 3 -12
-3 0 -13 -43 -10 -52 4 -4 5 -8 0 -8 -13 0 -13 4 -21 9 -17 15 9 23 -13 12
-32 -9 -16 -10 -16 -11 -1 0 12 -7 15 -25 12 -19 -3 -25 0 -26 13 -1 25 -17
-43 -24 -101 -5 -51 -15 -75 -15 -38 0 12 -8 26 -19 31 -17 10 -18 6 -14 -57
2 -37 5 -72 8 -79 2 -6 24 -21 49 -32 25 -11 46 -24 46 -28 0 -8 -6 -11 -96
-57 -37 -18 -55 -34 -62 -55 -11 -31 0 -51 28 -51 8 0 21 -9 28 -21 8 -12 19
-18 28 -15 17 7 64 -13 64 -27 0 -7 41 -7 118 -2 109 8 280 10 397 6 l50 -2
-27 -20 c-16 -11 -28 -27 -28 -35 0 -7 -11 -21 -25 -30 -14 -9 -25 -20 -25
-25 0 -6 -13 -22 -28 -37 -73 -72 -151 -223 -187 -362 -13 -53 -75 -346 -75
-357 0 -2 335 -3 745 -3 703 0 745 1 745 18 0 38 -15 45 -66 34 -80 -18 -183
-22 -294 -12 -98 8 -228 35 -240 50 -3 3 -36 22 -74 41 -110 55 -114 58 -144
102 -63 96 -74 132 -73 235 1 53 6 116 11 139 17 73 80 254 111 314 l29 58
-21 35 c-15 26 -26 35 -42 32 -17 -3 -21 -9 -19 -30 2 -20 -2 -26 -17 -26 -11
0 -23 5 -26 10 -4 6 -1 9 7 8 8 -2 14 9 16 29 2 25 7 31 19 26 11 -4 14 -3 9
6 -5 7 -14 10 -21 7 -7 -2 -18 1 -24 7 -8 8 -11 7 -11 -6 0 -11 -8 -17 -22
-17 -17 0 -19 3 -10 12 7 7 12 28 12 48 0 45 7 55 53 69 20 7 37 17 37 22 0 5
5 9 11 9 5 0 7 -5 4 -10 -7 -11 39 6 65 24 8 6 6 0 -5 -13 l-20 -24 23 5 c12
4 22 2 22 -2 0 -5 14 -5 31 0 18 5 36 7 40 4 5 -3 9 1 9 9 0 19 45 30 70 17
12 -7 21 -7 25 0 3 6 17 7 29 4 23 -5 50 12 58 38 3 7 11 9 24 3 36 -15 48
-14 68 9 12 13 29 26 39 29 9 4 17 16 17 27 0 11 6 20 13 20 9 0 12 -10 9 -33
-4 -29 -3 -31 12 -16 14 12 15 21 6 43 -5 15 -8 32 -4 37 8 13 34 11 34 -2 0
-8 4 -8 14 0 7 6 21 9 29 5 23 -8 36 3 30 26 -7 25 -21 26 -40 3 -13 -17 -14
-17 -11 2 2 13 12 21 31 23 25 3 40 22 17 22 -6 0 -5 6 2 14 11 13 16 13 35 0
25 -16 73 -19 73 -5 0 5 -15 15 -32 21 -28 11 -30 14 -13 17 31 8 46 24 40 44
-4 13 -1 19 9 19 9 0 16 -9 16 -20 0 -11 7 -20 16 -20 11 0 13 6 9 19 -3 11
-1 22 5 26 6 4 10 -4 10 -17 0 -13 5 -29 12 -36 9 -9 9 -12 0 -12 -7 0 -12 -5
-12 -12 0 -6 9 -3 20 7 11 10 20 29 20 42 0 25 15 31 23 10 3 -7 3 -25 0 -40
-6 -31 8 -35 28 -10 10 11 10 14 2 9 -9 -5 -13 2 -13 24 0 20 4 29 11 25 7 -5
10 18 8 73 -1 43 1 84 5 90 4 6 9 235 11 509 3 274 7 548 10 610 3 89 1 112
-10 117 -11 4 -4 32 32 133 25 70 47 136 50 146 6 21 -15 49 -30 40 -7 -4 -8
0 -2 13 14 35 17 64 7 64 -6 0 -14 -5 -17 -10 -8 -12 -57 -13 -70 -1 -16 14
-63 22 -70 11 -3 -5 -1 -10 5 -10 6 0 8 -4 5 -10 -10 -17 -25 -11 -25 9 0 26
-21 32 -43 13 -21 -19 -28 -12 -37 35 -8 37 -8 37 -9 -14 0 -28 -5 -54 -10
-57 -13 -8 -20 28 -9 48 6 10 5 23 -1 34 -10 15 -11 15 -17 -5 -8 -28 -26 -19
-23 10 1 12 -2 30 -6 41 -5 10 -4 26 2 35 8 12 6 20 -5 31 -14 13 -15 12 -10
-1 3 -9 1 -16 -6 -16 -13 0 -15 35 -3 55 5 7 5 21 2 32 -4 12 -2 20 5 20 7 0
10 23 9 68 -3 106 -2 111 21 105 25 -7 27 18 4 38 -13 10 -17 10 -25 -2 -7
-12 -9 -12 -9 2 0 24 10 29 31 16 26 -16 48 5 29 28 -12 14 -11 18 1 26 8 5
20 9 27 9 7 0 11 4 8 9 -3 5 8 14 25 21 16 7 58 43 92 79 148 158 188 193 250
221 79 36 141 45 207 31 71 -15 169 -74 204 -122 15 -22 30 -38 32 -36 3 3 5
65 6 138 1 77 6 142 12 152 11 17 4 26 -29 41 -6 3 -4 9 4 14 10 7 12 25 7 73
-9 100 -18 143 -30 151 -7 5 -6 8 3 8 11 0 10 4 -5 16 -10 8 -13 13 -6 9 13
-7 10 19 -8 70 -4 11 -5 26 -3 32 5 14 -14 36 -37 46 -10 3 -7 6 8 6 26 1 26
-1 6 47 -9 22 -18 54 -20 72 -2 18 -7 38 -11 45 -4 6 -6 19 -5 29 2 9 -6 33
-16 53 -11 19 -18 44 -15 54 3 12 -3 24 -16 33 -12 8 -18 18 -14 21 3 4 -2 7
-12 7 -18 0 -18 1 1 16 10 8 14 13 7 10 -6 -4 -15 3 -18 15 -4 12 -17 32 -29
46 -11 14 -21 30 -21 36 -1 7 -6 22 -13 33 -6 12 -9 24 -6 26 2 3 -11 13 -30
22 -40 19 -55 36 -32 36 9 0 16 5 16 11 0 7 -9 9 -21 6 -16 -4 -19 -3 -11 5
14 14 -13 37 -42 38 -11 0 -16 3 -12 7 4 4 -8 13 -26 19 -18 6 -32 15 -31 20
1 5 -9 15 -23 22 -13 7 -24 17 -24 22 0 6 -7 10 -15 10 -8 0 -15 5 -15 10 0 6
-10 10 -22 11 -22 0 -22 1 -3 9 14 6 15 9 5 9 -9 1 -28 15 -43 32 -16 19 -33
29 -42 25 -8 -3 -17 -1 -20 4 -4 6 0 10 7 10 23 0 -15 20 -39 20 -12 0 -23 4
-25 8 -1 5 -28 20 -57 35 -30 15 -49 27 -42 27 23 0 1 18 -36 31 -21 7 -43 17
-49 24 -8 8 -37 11 -82 9 -52 -3 -74 0 -85 11 -8 8 -28 17 -43 21 -16 4 -36
12 -44 19 -22 18 -158 47 -183 39 -12 -3 -19 -3 -15 1 4 4 -4 16 -17 27 -27
21 -118 28 -221 18z"/>
<path d="M4650 4183 c-22 -7 -79 -32 -125 -54 -53 -26 -148 -148 -163 -210 -7
-26 -15 -54 -19 -64 -3 -10 -2 -16 3 -13 8 5 13 -23 17 -104 1 -14 6 -24 11
-20 5 3 6 -2 3 -12 -4 -10 -7 -25 -7 -33 0 -11 -7 -14 -25 -11 -23 5 -25 2
-25 -28 0 -25 4 -32 14 -28 18 7 78 -46 72 -63 -6 -15 10 -18 19 -3 3 6 24 10
47 10 34 0 67 -14 108 -47 2 -2 -2 -8 -10 -13 -12 -8 -11 -10 6 -10 12 0 24
-8 26 -17 11 -40 -44 -228 -97 -333 -7 -14 -18 -42 -25 -63 -7 -22 -18 -51
-26 -65 -8 -15 -14 -33 -14 -39 0 -7 -9 -13 -20 -13 -20 0 -20 -7 -20 -467 0
-258 -2 -587 -4 -733 -3 -146 -1 -245 3 -220 l8 45 2 -50 c2 -68 20 -133 32
-114 7 11 9 10 9 -5 0 -20 27 -45 48 -46 8 0 22 -10 32 -22 17 -21 17 -25 4
-46 -16 -25 -10 -62 10 -62 7 0 19 11 26 25 16 30 41 32 57 6 8 -12 19 -17 32
-14 14 3 21 -2 26 -18 6 -19 9 -20 19 -8 8 10 23 12 56 8 l45 -6 -42 -1 c-24
-1 -43 -6 -43 -12 0 -5 6 -10 14 -10 8 0 16 -6 19 -12 4 -10 7 -10 18 -1 24
23 39 15 33 -17 -8 -39 6 -38 44 5 44 48 42 65 -8 65 -33 0 -40 3 -40 20 0 11
7 20 15 20 23 0 65 30 65 46 0 8 8 14 19 14 10 0 26 10 34 23 14 19 18 20 26
7 8 -11 11 -4 11 30 0 45 0 46 -45 59 -25 7 -45 16 -45 20 0 4 16 13 36 20 29
10 38 11 44 1 12 -20 19 11 8 34 -7 13 -6 26 3 42 10 19 10 27 1 36 -17 17
-15 45 6 60 9 7 23 21 31 30 11 16 9 20 -23 39 -25 14 -36 28 -36 44 0 13 -7
25 -15 29 -8 3 -15 14 -15 25 0 11 -5 23 -10 26 -6 3 -8 16 -5 28 4 16 -8 36
-47 77 -30 32 -53 50 -55 43 -6 -18 -23 -16 -23 3 0 8 -16 22 -35 30 -35 14
-57 47 -48 72 3 7 -3 12 -16 12 -12 0 -21 6 -21 15 0 8 -3 15 -7 15 -5 0 -19
23 -33 52 -14 28 -33 56 -42 62 -10 6 -18 19 -18 29 0 11 -9 21 -20 24 -11 3
-20 12 -20 19 0 17 12 18 28 2 9 -9 12 -8 12 6 0 9 -4 15 -10 11 -15 -9 -38
37 -46 93 -5 43 -10 52 -27 52 -15 0 -17 3 -8 14 9 11 8 15 -4 20 -13 5 -14
10 -4 27 13 26 -4 42 -36 32 -18 -5 -19 -4 -5 12 12 14 12 19 2 22 -6 3 -9 9
-6 15 4 7 9 6 14 -2 4 -7 13 -9 19 -6 16 10 -5 47 -23 40 -11 -4 -14 10 -12
73 5 141 1 130 49 135 47 6 157 54 157 70 0 5 14 23 31 39 17 16 28 33 24 39
-4 6 -1 17 5 25 18 22 3 18 -19 -4 -13 -13 -18 -27 -14 -42 5 -16 3 -20 -6
-15 -8 5 -20 0 -32 -13 -11 -12 -27 -21 -37 -22 -14 0 -13 -2 3 -8 20 -8 20
-8 -1 -15 -12 -4 -26 -6 -30 -5 -5 1 -22 1 -39 0 -23 -1 -27 -3 -15 -11 18
-12 2 -12 -25 0 -11 5 -14 9 -6 9 7 1 11 7 8 15 -3 8 11 31 34 54 25 26 39 50
40 69 l1 28 7 -30 c6 -26 8 -24 13 25 4 30 5 71 2 90 -2 19 3 49 11 67 8 18
22 49 31 68 9 19 20 32 25 29 5 -3 9 0 9 5 0 6 5 11 11 11 18 0 38 26 64 82
37 80 30 142 -21 183 -14 11 -26 29 -28 39 -2 12 -16 24 -36 31 -18 6 -41 21
-51 34 -11 13 -19 19 -19 15 0 -12 -92 -16 -109 -5 -11 7 -9 15 10 42 13 19
29 37 34 41 16 12 15 119 -1 125 -15 6 -19 43 -5 43 5 0 11 -3 14 -7 2 -5 3
-3 1 3 -4 18 46 61 54 47 4 -6 23 -13 42 -14 36 -4 61 -18 53 -31 -2 -5 5 -8
16 -8 36 0 51 -12 51 -41 0 -21 10 -36 40 -60 22 -18 37 -36 34 -40 -3 -5 3
-6 13 -2 10 3 15 3 11 -2 -4 -4 -3 -14 3 -22 9 -10 8 -13 -4 -13 -8 0 -18 6
-20 13 -3 6 -6 -1 -6 -17 -1 -25 2 -27 23 -22 28 7 37 -8 25 -41 -6 -16 -2
-28 15 -46 16 -18 20 -30 15 -45 -5 -12 -9 -42 -10 -67 -2 -25 -6 -48 -10 -51
-5 -3 -6 -11 -3 -19 6 -15 -19 -66 -48 -99 -10 -11 -18 -30 -18 -42 0 -13 -7
-27 -16 -32 -9 -5 -15 -12 -15 -15 3 -22 -1 -28 -14 -23 -10 3 -15 -1 -15 -14
0 -20 17 -36 28 -25 3 3 0 10 -8 15 -11 7 -8 10 13 10 17 0 30 7 34 18 3 9 15
30 27 46 28 41 56 98 56 114 0 7 5 23 12 35 11 21 11 21 18 2 5 -13 8 -1 10
35 6 131 4 157 -12 173 -9 9 -17 14 -20 12 -2 -2 -4 12 -5 33 0 49 -7 82 -21
109 -7 12 -12 29 -12 37 0 9 -4 16 -10 16 -5 0 -10 11 -10 24 0 14 -7 31 -15
39 -8 8 -11 17 -8 21 3 3 -2 15 -12 26 -15 17 -16 22 -4 36 12 15 10 16 -28
13 -39 -4 -41 -3 -27 12 11 13 12 19 4 24 -17 11 8 25 43 25 24 0 27 -3 25
-27 -2 -22 1 -27 15 -25 10 2 17 -3 17 -13 0 -9 7 -18 15 -21 8 -4 15 -12 15
-19 0 -8 13 -20 30 -28 l30 -15 -17 31 c-24 47 -92 125 -129 147 -30 19 -89
25 -124 13z"/>
<path d="M2640 3861 c10 -19 9 -20 -14 -11 -26 9 -72 8 -83 -3 -3 -4 -21 -7
-40 -7 -23 0 -33 -5 -33 -15 0 -9 -9 -15 -22 -15 -21 0 -21 0 -2 15 18 15 18
15 0 8 -13 -4 -17 -3 -12 5 5 8 -2 12 -20 12 -22 0 -25 -2 -14 -15 11 -13 8
-15 -13 -15 -19 0 -25 -4 -21 -15 9 -21 -44 -24 -57 -3 -4 7 -9 6 -13 -1 -10
-16 -26 -14 -26 4 0 8 -7 15 -16 15 -14 0 -14 -3 -4 -15 10 -13 9 -15 -10 -15
-16 0 -20 -4 -16 -15 3 -8 1 -15 -4 -15 -6 0 -10 5 -10 10 0 17 -27 11 -41
-10 -8 -12 -27 -21 -46 -22 -38 -3 -44 -15 -10 -21 14 -3 10 -5 -13 -6 -20 0
-43 -9 -52 -18 -9 -10 -28 -26 -42 -36 -24 -17 -28 -46 -4 -31 7 4 7 0 -1 -13
-12 -23 2 -43 30 -43 28 0 86 -61 94 -97 4 -20 3 -33 -3 -33 -6 0 -3 -22 6
-50 18 -52 28 -62 35 -32 2 9 3 0 1 -20 -3 -30 -1 -36 11 -32 10 4 15 0 15
-10 0 -19 16 -21 23 -3 4 9 8 9 15 -1 5 -8 20 -12 33 -10 18 2 25 10 27 31 2
18 8 27 16 24 7 -3 18 4 25 15 12 19 11 20 -6 14 -16 -6 -16 -5 -3 8 13 13 21
13 51 3 23 -8 34 -17 31 -26 -3 -10 0 -11 9 -5 8 5 21 7 31 6 9 -2 20 3 24 9
5 9 2 10 -9 6 -8 -3 -25 3 -38 14 -30 26 -12 39 42 32 36 -5 39 -4 39 20 0 14
-6 28 -12 31 -7 3 -2 3 12 -1 22 -5 23 -4 11 11 -12 14 -11 16 3 16 9 0 16 5
16 11 0 6 9 8 23 4 17 -5 19 -4 7 4 -8 6 -13 11 -10 12 3 0 13 2 23 4 14 3 18
-1 14 -16 -7 -25 7 -33 23 -14 14 17 40 3 40 -22 0 -10 6 -12 20 -8 14 4 20 2
20 -9 0 -16 62 -34 67 -19 2 5 31 8 66 5 44 -2 58 0 47 7 -17 11 -16 12 30 40
31 19 35 25 35 63 0 24 -6 49 -12 56 -25 26 -15 42 27 42 53 0 56 26 4 28 -20
1 -39 4 -43 7 -3 4 23 4 57 2 34 -2 65 0 68 4 3 5 -3 9 -13 10 -14 0 -14 2 5
9 12 5 22 16 22 24 0 13 -35 40 -50 39 -6 -1 -15 2 -60 16 -21 6 -24 9 -7 6
15 -3 27 -1 27 4 0 9 -59 26 -125 37 -16 3 -40 10 -53 17 -18 8 -28 8 -44 -2
-17 -11 -22 -10 -29 1 -7 11 -11 10 -20 -2 -8 -11 -12 -12 -16 -2 -2 7 -14 17
-25 23 -18 9 -18 9 -8 -10z m-177 -176 c37 3 45 2 27 -4 -22 -8 -23 -9 -4 -10
23 -1 28 -27 6 -36 -10 -4 -12 0 -8 11 6 14 4 15 -10 3 -14 -12 -14 -14 2 -26
17 -12 16 -13 -4 -13 -13 0 -22 6 -22 15 0 20 -18 19 -22 -1 -4 -22 -103 -53
-145 -47 -27 4 -33 10 -33 29 0 27 50 64 88 64 12 0 22 4 22 9 0 5 9 7 20 4
13 -3 20 0 21 8 0 11 2 11 6 1 3 -9 20 -11 56 -7z"/>
<path d="M1439 3698 c-1 -7 -1 -16 0 -20 0 -5 -5 -8 -13 -8 -7 0 -25 -11 -40
-25 -15 -14 -31 -25 -35 -25 -5 0 -12 -8 -15 -17 -15 -39 -31 -63 -43 -63 -7
0 -13 -8 -13 -19 0 -20 -32 -34 -56 -24 -9 3 -12 13 -8 29 4 16 2 24 -7 24
-12 0 -12 2 0 9 11 7 9 13 -8 30 -11 11 -21 29 -21 39 0 19 -34 62 -50 62 -16
0 -70 -61 -70 -80 0 -31 -21 -67 -46 -81 -18 -9 -24 -21 -24 -47 0 -55 -27
-90 -76 -98 -77 -11 -90 3 -97 103 -2 31 -4 32 -67 44 -198 36 -213 32 -144
-39 44 -44 84 -106 84 -127 0 -9 9 -36 20 -59 18 -40 18 -48 6 -95 -16 -64
-36 -86 -91 -102 -23 -7 -51 -18 -60 -26 -17 -11 -17 -14 -1 -37 32 -50 14
-103 -44 -128 -37 -15 -38 -17 -27 -42 9 -18 17 -24 33 -20 12 3 26 -1 33 -10
8 -9 24 -16 37 -16 31 0 38 -15 23 -49 -9 -20 -23 -31 -42 -35 -41 -8 -160 -7
-173 2 -14 9 -25 52 -14 52 5 0 11 -8 13 -17 4 -15 5 -15 5 2 1 24 -77 88 -93
76 -24 -19 -73 -20 -89 -2 -9 10 -13 21 -9 25 4 3 6 40 5 81 l-3 74 52 27 c60
30 55 37 -30 48 -84 11 -117 28 -131 70 -12 37 -5 61 24 85 14 11 14 15 0 37
-9 13 -24 26 -34 29 -51 16 -95 85 -84 129 12 49 111 115 129 86 11 -18 24 -1
21 28 -2 18 -15 35 -39 52 -20 14 -44 35 -52 48 -11 14 -26 22 -46 22 l-29 0
0 -1030 0 -1030 42 0 c52 0 402 37 479 50 30 6 68 10 84 10 15 0 25 3 22 6 -6
6 -19 9 -66 13 -11 1 -10 5 5 16 17 13 17 14 2 15 -14 0 -18 9 -18 38 0 20 -5
54 -11 76 -17 61 -4 103 36 120 18 8 38 23 44 34 19 36 72 60 145 66 38 3 102
17 141 31 61 21 81 23 120 16 29 -5 52 -17 61 -30 19 -26 38 -27 80 -1 36 23
175 43 227 33 43 -8 93 -46 101 -78 4 -17 14 -26 29 -27 41 -2 72 3 94 18 29
19 86 18 124 -2 28 -14 32 -14 50 2 10 9 21 32 25 51 10 51 54 93 99 93 47 0
88 -22 103 -54 8 -18 19 -26 36 -26 39 0 42 41 5 70 -17 13 -39 87 -39 130 0
38 6 55 26 80 l27 31 -23 31 c-12 17 -18 28 -11 24 6 -4 16 -4 23 0 16 10 69
13 63 4 -3 -5 8 -11 25 -15 34 -7 36 -13 16 -40 -8 -11 -20 -16 -29 -12 -18 7
-27 -14 -23 -53 5 -36 5 -37 16 -20 7 11 8 5 4 -18 -5 -25 -3 -32 7 -30 8 2
13 -4 13 -14 -1 -10 2 -16 6 -13 5 3 11 -1 14 -7 3 -10 9 -8 19 5 19 23 30 22
22 -3 -7 -22 5 -26 23 -8 9 9 12 9 12 0 0 -7 4 -12 10 -12 5 0 9 6 7 13 -1 6
4 11 12 9 27 -6 53 9 46 26 -4 10 -9 28 -11 42 -3 19 -2 22 6 10 9 -13 10 -13
9 0 -1 25 -13 45 -29 45 -20 0 -36 71 -20 90 7 8 20 15 30 15 10 0 34 16 53
35 19 19 33 35 30 35 -3 0 0 7 7 15 15 18 5 87 -21 135 -28 53 -94 120 -118
120 -13 0 -21 6 -21 16 0 15 -2 15 -22 2 -29 -20 -34 -38 -10 -38 18 0 37 -41
35 -77 0 -7 5 -13 13 -13 8 0 14 -3 14 -7 0 -15 -15 -28 -30 -28 -17 0 -20
-33 -6 -53 7 -9 5 -16 -5 -23 -11 -7 -10 -9 6 -9 19 -1 19 -1 1 -15 -10 -7
-15 -18 -11 -24 7 -12 -22 -4 -42 12 -7 5 -49 10 -93 10 -46 0 -75 4 -68 9 11
6 10 8 0 8 -16 0 -42 -24 -42 -39 0 -5 -5 -13 -12 -17 -7 -4 -8 -3 -4 4 5 8 0
12 -13 12 -12 0 -21 -4 -21 -10 0 -5 -7 -10 -15 -10 -18 0 -20 -30 -2 -31 6 0
0 -5 -15 -11 -16 -5 -28 -14 -28 -20 0 -17 -72 1 -106 27 -17 13 -37 38 -44
55 -10 25 -17 29 -34 24 -50 -17 -89 7 -94 58 -2 22 4 32 30 48 39 24 52 25
71 6 15 -15 11 -23 102 214 27 70 58 176 39 133 -3 -8 -15 -11 -28 -7 -28 7
-76 -11 -76 -30 0 -7 -7 -19 -15 -26 -8 -7 -13 -15 -11 -19 2 -3 -19 -7 -47
-9 -38 -2 -48 0 -37 8 12 8 10 10 -10 9 -40 0 -149 17 -157 25 -5 4 -8 13 -8
19 0 6 -11 17 -25 24 -42 21 -51 43 -44 100 4 38 3 53 -5 53 -7 0 -10 3 -7 8
2 4 -2 22 -9 39 -9 22 -31 42 -70 64 -63 36 -73 49 -57 84 10 21 15 23 35 16
13 -5 29 -6 36 -2 7 5 45 8 86 7 56 -1 78 -5 93 -19 20 -18 21 -18 32 4 11 19
10 25 -6 36 -10 7 -24 13 -31 13 -7 0 -13 6 -13 13 0 7 -9 18 -19 24 -48 30
-66 132 -26 143 11 3 39 15 62 28 41 21 42 23 26 42 -19 22 -62 27 -64 8z
m-126 -536 c20 -17 23 -72 5 -90 -7 -7 -38 -12 -69 -12 -49 0 -59 3 -72 24 -9
13 -12 27 -7 32 4 5 10 20 12 33 2 14 11 25 21 27 11 1 22 5 25 9 9 9 65 -6
85 -23z"/>
<path d="M6034 2735 c-4 -9 -2 -48 4 -88 6 -40 14 -103 18 -142 3 -38 10 -76
13 -83 7 -12 11 -6 51 78 4 8 16 15 26 15 30 1 60 27 80 68 10 20 21 37 25 37
3 0 12 13 19 29 6 16 20 31 31 34 26 7 24 34 -3 40 -13 3 -57 8 -98 12 -41 3
-94 8 -118 11 -33 4 -44 2 -48 -11z"/>
<path d="M2291 2089 c-53 -28 -58 -37 -25 -44 16 -3 37 -11 48 -16 13 -7 22
-7 29 0 15 15 54 14 60 -1 3 -9 10 -7 21 7 8 11 16 15 16 8 0 -17 80 -17 115
-1 52 24 22 39 -87 44 -42 2 -89 9 -103 14 -32 12 -32 12 -74 -11z"/>
<path d="M350 1493 c-79 -12 -318 -55 -332 -59 -15 -4 -18 -17 -18 -76 l0 -70
217 6 c120 4 295 14 388 21 94 8 220 17 280 20 136 7 265 25 265 36 0 22 -210
98 -324 118 -56 10 -420 13 -476 4z"/>
<path d="M6154 1302 c8 -13 -25 -18 -111 -17 -40 1 -73 -2 -73 -6 0 -4 -8 -5
-18 -2 -20 5 -172 -71 -253 -126 -26 -17 -54 -31 -63 -31 -9 0 -16 -5 -16 -11
0 -7 -10 -22 -22 -34 -45 -44 -100 -119 -104 -140 -3 -13 -58 -142 -98 -230
-18 -38 -38 -84 -45 -101 -13 -33 -15 -34 -126 -85 -38 -17 -108 -53 -155 -79
-176 -98 -479 -245 -552 -269 -31 -10 -38 -17 -38 -39 0 -15 -3 -51 -6 -79
l-7 -53 967 0 966 0 -2 658 c0 361 -3 643 -5 625 -4 -30 -6 -31 -25 -20 -16 9
-22 9 -25 0 -3 -7 -9 -13 -14 -13 -4 0 -6 7 -2 16 5 13 -2 15 -38 12 -31 -2
-43 1 -41 10 1 9 -2 10 -16 1 -14 -9 -26 -8 -51 6 -18 9 -31 12 -27 7z"/>
<path d="M1952 1125 c-61 -19 -103 -50 -138 -104 -48 -73 -74 -146 -84 -231
-10 -89 -27 -121 -73 -143 -40 -19 -403 -93 -552 -112 -27 -4 -77 -13 -110
-20 -71 -16 -282 -51 -450 -75 -44 -6 -129 -20 -190 -30 -60 -11 -150 -24
-200 -30 -50 -6 -105 -13 -123 -16 l-32 -6 0 -85 c0 -70 3 -84 14 -80 26 10
168 39 234 47 35 5 87 20 115 33 63 31 97 37 144 26 24 -5 50 -3 77 6 23 7 73
18 111 25 39 7 106 21 150 30 44 10 112 23 150 30 39 6 81 16 95 21 14 5 59
14 100 19 41 6 111 19 155 29 69 16 140 29 235 45 14 2 37 9 51 14 14 6 52 13
85 17 32 4 84 13 114 20 70 18 95 23 205 41 112 19 233 59 263 86 26 25 33 94
8 85 -25 -10 -76 16 -82 40 -11 40 -32 25 -49 -34 -9 -32 -28 -70 -43 -85 -28
-30 -117 -68 -158 -68 -33 0 -74 28 -74 51 0 11 -7 19 -15 19 -8 0 -15 7 -15
15 0 9 -6 18 -14 21 -24 9 -27 34 -10 70 16 33 16 34 -15 69 -17 20 -31 42
-31 49 0 22 38 49 78 55 31 5 38 11 40 32 2 15 13 32 26 39 20 10 28 9 50 -5
14 -10 26 -24 26 -31 0 -9 12 -14 34 -14 42 0 68 -9 60 -21 -3 -5 0 -9 6 -9 6
0 10 -10 8 -22 -2 -19 -9 -23 -35 -22 -18 1 -30 -2 -27 -7 3 -5 25 -9 50 -9
24 0 44 -4 44 -10 0 -5 7 -10 15 -10 11 0 15 12 15 50 0 96 -54 179 -130 200
-44 12 -55 12 -108 -5z"/>
</g>
</svg>
